<?xml version="1.0" standalone="no"?>
<!DOCTYPE svg PUBLIC "-//W3C//DTD SVG 20010904//EN"
 "http://www.w3.org/TR/2001/REC-SVG-20010904/DTD/svg10.dtd">
<svg version="1.0" xmlns="http://www.w3.org/2000/svg"
 width="452.000000pt" height="452.000000pt" viewBox="0 0 452.000000 452.000000"
 preserveAspectRatio="xMidYMid meet">
<metadata>
Created by potrace 1.14, written by Peter Selinger 2001-2017
</metadata>
<g transform="translate(0.000000,452.000000) scale(0.100000,-0.100000)"
fill="#000000" stroke="none">
<path d="M2168 4095 c-2 -2 -39 -5 -84 -9 -230 -17 -532 -113 -744 -237 -238
-139 -457 -346 -613 -580 -54 -81 -150 -267 -176 -339 -7 -19 -17 -44 -21 -55
-22 -52 -63 -207 -75 -280 -4 -22 -9 -51 -11 -65 -34 -195 -23 -465 28 -685
104 -452 387 -858 781 -1119 73 -48 295 -166 312 -166 4 0 21 -6 38 -14 72
-32 247 -80 332 -92 28 -3 53 -8 57 -10 12 -8 161 -18 263 -18 157 0 281 13
420 46 830 193 1420 937 1419 1788 -1 217 -27 378 -94 582 -180 543 -615 977
-1159 1158 -64 22 -127 41 -141 44 -152 29 -193 36 -245 42 -60 6 -282 13
-287 9z m352 -161 c529 -82 986 -409 1239 -887 85 -160 156 -375 175 -527 3
-25 8 -61 11 -80 16 -95 7 -345 -16 -465 -5 -27 -12 -66 -15 -85 -10 -63 -83
-270 -126 -359 -160 -332 -413 -595 -739 -770 -88 -47 -250 -114 -258 -106 -3
3 -6 144 -6 313 -1 303 -2 308 -27 382 -15 41 -25 76 -23 78 1 1 44 14 95 28
275 73 438 197 544 410 45 91 73 193 91 334 7 48 7 252 1 270 -3 8 -7 31 -10
50 -12 80 -54 179 -117 272 -34 51 -37 60 -28 90 38 132 -9 445 -74 479 -29
16 -170 5 -238 -19 -76 -27 -162 -68 -237 -114 -35 -21 -67 -36 -72 -33 -5 3
-43 12 -84 20 -210 40 -462 39 -676 -4 l-85 -16 -73 44 c-178 106 -366 157
-453 123 -67 -26 -117 -330 -78 -474 10 -38 9 -43 -31 -99 -53 -75 -86 -152
-110 -253 -37 -150 -17 -431 41 -586 94 -253 270 -408 559 -491 36 -11 75 -19
87 -19 33 0 34 -10 9 -81 -23 -63 -24 -64 -72 -77 -63 -16 -151 -9 -201 16
-52 27 -91 65 -137 134 -90 137 -209 210 -342 211 -149 1 -185 -115 -64 -211
103 -82 130 -115 182 -220 73 -149 176 -243 303 -277 17 -5 37 -10 45 -13 8
-2 67 -6 130 -8 63 -1 117 -3 120 -4 3 0 5 -60 5 -132 0 -73 -3 -132 -8 -131
-4 1 -21 5 -38 8 -43 10 -217 86 -276 121 -26 16 -60 35 -74 43 -39 19 -167
117 -244 185 -277 245 -489 636 -539 996 -4 25 -9 63 -12 85 -8 56 -8 289 0
350 37 294 124 535 273 757 80 118 114 160 213 258 115 115 143 139 256 215
90 60 308 175 333 175 6 0 19 4 29 10 27 15 172 57 242 70 96 18 107 20 205
26 50 4 91 7 92 8 9 7 218 -7 303 -20z m-1024 -725 c82 -25 164 -65 257 -125
l68 -44 57 14 c245 62 498 66 745 11 l107 -24 80 49 c44 28 106 63 139 79 74
36 189 67 200 55 17 -18 37 -141 34 -211 -1 -40 -12 -100 -23 -133 l-21 -61
49 -62 c61 -77 96 -144 122 -238 17 -62 19 -95 16 -209 -6 -188 -21 -260 -83
-387 -82 -169 -246 -286 -468 -336 -76 -17 -96 -21 -249 -38 l-98 -12 33 -29
c180 -156 185 -171 184 -601 -1 -243 -3 -290 -15 -297 -57 -32 -379 -54 -535
-37 -82 10 -177 25 -182 31 -3 2 -5 113 -6 245 -2 235 -2 240 -22 236 -229
-54 -394 -37 -500 50 -32 26 -55 59 -85 123 -23 48 -60 111 -82 140 -22 29
-31 48 -21 41 11 -6 35 -33 54 -60 137 -196 214 -243 394 -242 81 0 114 5 174
26 41 14 77 30 82 34 4 4 10 28 13 52 3 24 17 67 30 96 22 49 39 68 140 160
l40 35 -30 1 c-95 2 -310 38 -394 66 -133 44 -199 82 -280 163 -92 92 -148
198 -176 334 -29 142 -27 347 5 446 21 68 78 169 121 217 41 45 42 49 20 113
-24 72 -29 188 -10 275 7 33 14 63 17 68 7 11 26 9 99 -14z"/>
</g>
</svg>
